<?xml version="1.0" encoding="UTF-8" standalone="no"?>
<svg
   xmlns:dc="http://purl.org/dc/elements/1.1/"
   xmlns:cc="http://creativecommons.org/ns#"
   xmlns:rdf="http://www.w3.org/1999/02/22-rdf-syntax-ns#"
   xmlns:svg="http://www.w3.org/2000/svg"
   xmlns="http://www.w3.org/2000/svg"
   xmlns:sodipodi="http://sodipodi.sourceforge.net/DTD/sodipodi-0.dtd"
   xmlns:inkscape="http://www.inkscape.org/namespaces/inkscape"
   viewBox="0 0 332.65 112.16"
   version="1.1"
   id="svg30"
   sodipodi:docname="logo.org.color.svg"
   inkscape:version="0.92.1 r15371">
  <metadata
     id="metadata34">
    <rdf:RDF>
      <cc:Work
         rdf:about="">
        <dc:format>image/svg+xml</dc:format>
        <dc:type
           rdf:resource="http://purl.org/dc/dcmitype/StillImage" />
      </cc:Work>
    </rdf:RDF>
  </metadata>
  <sodipodi:namedview
     pagecolor="#ffffff"
     bordercolor="#666666"
     borderopacity="1"
     objecttolerance="10"
     gridtolerance="10"
     guidetolerance="10"
     inkscape:pageopacity="0"
     inkscape:pageshadow="2"
     inkscape:window-width="1600"
     inkscape:window-height="837"
     id="namedview32"
     showgrid="false"
     inkscape:zoom="1.0912371"
     inkscape:cx="166.325"
     inkscape:cy="129.3913"
     inkscape:window-x="-8"
     inkscape:window-y="-8"
     inkscape:window-maximized="1"
     inkscape:current-layer="svg30" />
  <defs
     id="defs4">
    <style
       id="style2">.cls-1{fill:#f58420;}.cls-2{fill:#163b4f;}</style>
  </defs>
  <title
     id="title6">logo.org.color</title>
  <g
     id="_Group_"
     data-name="&lt;Group&gt;"
     style="fill:#f58420;fill-opacity:1">
    <path
       class="cls-1"
       d="m 13.72,59.45 a 14,14 0 0 0 1.68,6.69 L 5,55.69 A 16.91,16.91 0 0 1 5,31.78 L 15.4,21.33 A 14,14 0 0 0 13.72,28 Z"
       id="path8"
       inkscape:connector-curvature="0"
       style="fill:#f58420;fill-opacity:1" />
    <path
       class="cls-1"
       d="M 65.95,15.59 A 14,14 0 0 0 59.26,13.91 H 27.83 a 14,14 0 0 0 -6.69,1.68 L 31.59,5.14 a 16.91,16.91 0 0 1 23.91,0 z"
       id="path10"
       inkscape:connector-curvature="0"
       style="fill:#f58420;fill-opacity:1" />
    <path
       class="cls-1"
       d="M 82.13,55.69 71.68,66.14 a 14,14 0 0 0 1.68,-6.69 V 28 a 14,14 0 0 0 -1.68,-6.69 l 10.45,10.47 a 16.91,16.91 0 0 1 0,23.91 z"
       id="path12"
       inkscape:connector-curvature="0"
       style="fill:#f58420;fill-opacity:1" />
    <path
       class="cls-1"
       d="M 65.95,71.87 55.5,82.32 a 16.91,16.91 0 0 1 -23.91,0 L 21.14,71.87 a 14,14 0 0 0 6.69,1.68 h 31.43 a 14,14 0 0 0 6.69,-1.68 z"
       id="path14"
       inkscape:connector-curvature="0"
       style="fill:#f58420;fill-opacity:1" />
  </g>
  <g
     id="_Group_2"
     data-name="&lt;Group&gt;"
     style="fill:#f58420;fill-opacity:1">
    <rect
       class="cls-1"
       x="22.309999"
       y="22.5"
       width="42.470001"
       height="42.470001"
       rx="10.04"
       ry="10.04"
       transform="rotate(-45,43.544856,43.73313)"
       id="rect17"
       style="fill:#f58420;fill-opacity:1" />
  </g>
  <path
     class="cls-2"
     d="m 332.64,72.84 v 0 -0.5 c 0.01,0.17 0.01,0.34 0,0.5 z m -24.07,0 v 0 c 0,-0.16 0,-0.33 0,-0.5 z"
     id="path20"
     inkscape:connector-curvature="0"
     style="fill:#163b4f;fill-opacity:1" />
  <path
     class="cls-2"
     d="m 308.57,1.09 v 9.52 A 34.43,34.43 0 0 0 285,1.09 c -20.07,0 -36.33,17.76 -36.33,39.68 0,21.92 16.23,39.67 36.33,39.67 a 34.43,34.43 0 0 0 23.6,-9.52 v 1.42 c 0,0.17 0,0.34 0,0.5 0.07,13.82 -7.91,19.41 -26.79,19.13 -11.24,-1.75 -14.64,-4.1 -22,-7.91 l -9.74,17.53 c 16,10.34 34.66,13.35 56.45,7.91 16.59,-5.39 25.6,-17.34 26.12,-36.66 0,-0.17 0,-0.33 0,-0.5 V 1.09 Z m -17.34,59.42 c -10,0 -18.16,-8.93 -18.16,-19.94 0,-11.01 8.13,-19.93 18.16,-19.93 8.15,0 15,5.87 17.34,14 a 21.79,21.79 0 0 1 0,11.92 c -2.31,8.07 -9.19,13.95 -17.34,13.95 z"
     id="path22"
     inkscape:connector-curvature="0"
     style="fill:#163b4f;fill-opacity:1" />
  <path
     class="cls-2"
     d="m 189,44.14 a 43.3,43.3 0 0 1 -86.6,0 C 102.4,19.76 121.78,0 145.7,0 169.62,0 189,19.76 189,44.14 Z M 145.41,21 c -9.57,0 -17.33,10.15 -17.33,22.66 0,12.51 7.76,22.66 17.33,22.66 9.57,0 17.33,-10.15 17.33,-22.66 C 162.74,31.15 155,21 145.41,21 Z"
     id="path24"
     inkscape:connector-curvature="0"
     style="fill:#163b4f;fill-opacity:1" />
  <path
     class="cls-2"
     d="m 247.07,2.37 -4,24.18 c -1.75,-0.77 -3.52,-1.54 -9.26,-1 -8.73,1.7 -12.78,7.6 -14.12,15.93 v 43.08 h -24.04 v -82 h 24.07 V 11 c 5.71,-8.18 14.57,-11.72 27.35,-8.63 z"
     id="path26"
     inkscape:connector-curvature="0"
     style="fill:#163b4f;fill-opacity:1" />
</svg>
