<?xml version="1.0" encoding="utf-8"?>
<!-- Generator: Adobe Illustrator 21.1.0, SVG Export Plug-In . SVG Version: 6.00 Build 0)  -->
<svg version="1.1" id="Layer_1" xmlns="http://www.w3.org/2000/svg" xmlns:xlink="http://www.w3.org/1999/xlink" x="0px" y="0px"
	 viewBox="0 0 110.6 50.1" style="enable-background:new 0 0 110.6 50.1;" xml:space="preserve">
<style type="text/css">
	.st0{fill:#3E3E3E;}
	.st1{fill:#74569A;}
</style>
<title>logo.site.simple</title>
<g id="Layer_2">
	<g id="Layer_1-2">
		<path class="st0" d="M53.3,5.4c0,3-2.2,5.4-5.8,5.4c-2.9,0.2-5.4-2-5.5-4.9c0-0.2,0-0.3,0-0.5C41.9,2.3,44.1,0,47.6,0
			c3-0.2,5.5,2.1,5.7,5C53.3,5.1,53.3,5.3,53.3,5.4z M42.3,49.3V15h10.7v34.4L42.3,49.3z"/>
		<path class="st0" d="M69.9,5.1V15h7.7v7.9h-7.7v12.4c0,4.2,1,6,4.2,6c1.1,0,2.1-0.1,3.2-0.3l0.1,8.1c-2.3,0.7-4.6,1-7,0.9
			c-3,0.1-5.8-1-8-3c-2-2-3-5.3-3-10.2v-14h-4.5V15h4.6V7.5L69.9,5.1z"/>
		<path class="st0" d="M88.1,35.6c0.3,4.4,4.7,6.5,9.7,6.5c3.2,0,6.4-0.4,9.5-1.4l1.4,7.3c-4,1.5-8.2,2.2-12.4,2.1
			c-11.7,0-18.3-6.8-18.3-17.5c0-8.7,5.4-18.4,17.4-18.4c11.1,0,15.3,8.6,15.3,17.1c0,1.4-0.1,2.8-0.3,4.2L88.1,35.6z M100.7,28.3
			c0-2.6-1.1-7-6-7c-4.5,0-6.3,4.1-6.6,7H100.7z"/>
		<path class="st0" d="M29.9,28.3c-4.2-1.5-5.5-2.3-5.5-3.9s1.5-2.8,4.1-2.8c2.6,0.1,5.2,0.8,7.5,2l1.9-7.4c-3.1-1.4-6.4-2-9.7-2
			c-8.5,0-14,4.9-14,11.2c-0.1,4.1,2.7,7.9,9.8,10.3c4,1.3,5.1,2.2,5.1,3.9s-1.3,2.9-4.6,2.9c-1.9-0.1-3.9-0.4-5.7-1.1
			c0,0.1,0,0.2,0,0.3c0,2.7-1.3,5.2-3.4,6.7c2.9,1,6,1.5,9.1,1.5c9.8,0,14.9-4.7,14.9-11.1C39.2,33.9,36.5,30.6,29.9,28.3z"/>
		<circle class="st1" cx="7.9" cy="41.5" r="7.9"/>
	</g>
</g>
</svg>
